<svg xmlns="http://www.w3.org/2000/svg" style="display:none"><defs><symbol id="icon-checkmark" viewBox="0 0 24 24"><path fill="currentColor" d="M9 16.17L4.83 12l-1.42 1.41L9 19 21 7l-1.41-1.41z"/></symbol><symbol id="icon-info" viewBox="0 0 24 24"><path fill="currentColor" d="M12 2C6.48 2 2 6.48 2 12s4.48 10 10 10 10-4.48 10-10S17.52 2 12 2zm1 15h-2v-6h2zm0-8h-2V7h2z"/></symbol><symbol id="icon-calendar" viewBox="0 0 24 24"><path fill="currentColor" d="M19 4h-1V2h-2v2H8V2H6v2H5c-1.11 0-1.99.9-1.99 2L3 20c0 1.1.89 2 2 2h14c1.1 0 2-.9 2-2V6c0-1.1-.9-2-2-2zm0 16H5V10h14zm-10-6H7v-2h2zm4 0h-2v-2h2zm4 0h-2v-2h2zm-8 4H7v-2h2zm4 0h-2v-2h2zm4 0h-2v-2h2z"/></symbol><symbol id="icon-clock" viewBox="0 0 24 24"><path fill="currentColor" d="M11.99 2C6.47 2 2 6.48 2 12s4.47 10 9.99 10C17.52 22 22 17.52 22 12S17.52 2 11.99 2zM12 20c-4.42 0-8-3.58-8-8s3.58-8 8-8 8 3.58 8 8-3.58 8-8 8zm.5-13H11v6l5.25 3.15.75-1.23-4.5-2.67z"/></symbol><symbol id="icon-document" viewBox="0 0 24 24"><path fill="currentColor" d="M14 2H6c-1.1 0-1.99.9-1.99 2L4 20c0 1.1.89 2 1.99 2H18c1.1 0 2-.9 2-2V8zm2 16H8v-2h8zm0-4H8v-2h8zm-3-5V3.5L18.5 9z"/></symbol></defs></svg>
